<svg width="104" height="34" viewBox="0 0 104 34" fill="none" xmlns="http://www.w3.org/2000/svg">
<path d="M31.5729 6.78149H38.9084C40.9232 6.78149 42.5957 7.32763 43.9259 8.41991C45.256 9.49268 45.9211 11.1116 45.9211 13.2766C45.9211 14.7005 45.5984 15.9098 44.9528 16.9046C44.3269 17.8798 43.4955 18.6112 42.4588 19.0989C41.422 19.5865 40.2972 19.8303 39.0844 19.8303H35.1526V27.2617H31.5729V6.78149ZM38.6443 16.612C39.8767 16.612 40.7961 16.3097 41.4025 15.705C42.0284 15.0808 42.3414 14.2714 42.3414 13.2766C42.3414 12.2819 42.0186 11.4919 41.3731 10.9068C40.7472 10.3021 39.8278 9.99981 38.615 9.99981H35.1526V16.612H38.6443Z" fill="black"/>
<path d="M50.5111 21.1176C50.5698 21.7418 50.7752 22.3367 51.1273 22.9023C51.4794 23.468 51.9489 23.9263 52.5357 24.2774C53.1421 24.609 53.817 24.7748 54.5603 24.7748C55.4992 24.7748 56.2719 24.5505 56.8783 24.1019C57.5043 23.6533 57.9248 23.1364 58.14 22.5512L61.1036 23.4582C60.6537 24.7065 59.8712 25.7208 58.7562 26.501C57.6608 27.2812 56.2621 27.6713 54.5603 27.6713C53.1714 27.6713 51.9097 27.3397 50.7752 26.6765C49.6602 26.0134 48.7701 25.0966 48.105 23.9263C47.4595 22.756 47.1368 21.4297 47.1368 19.9473C47.1368 18.504 47.4595 17.1971 48.105 16.0268C48.7701 14.8565 49.6602 13.9398 50.7752 13.2766C51.9097 12.594 53.1617 12.2526 54.531 12.2526C55.9198 12.2526 57.1326 12.5745 58.1694 13.2181C59.2257 13.8423 60.0375 14.72 60.6048 15.8513C61.172 16.9826 61.4557 18.2894 61.4557 19.7718V21.1176H50.5111ZM58.3454 18.4259C58.3063 17.9383 58.14 17.4409 57.8466 16.9338C57.5532 16.4267 57.1228 16.0073 56.5556 15.6757C56.0078 15.3247 55.3427 15.1491 54.5603 15.1491C53.4453 15.1491 52.5357 15.4709 51.8315 16.1146C51.1468 16.7388 50.7165 17.5092 50.5404 18.4259H58.3454Z" fill="black"/>
<path d="M72.3842 27.6713C71.2888 27.6713 70.3498 27.4567 69.5674 27.0276C68.7849 26.5985 68.1687 26.0816 67.7188 25.477L67.2493 27.2617H64.3445V6.78149H67.8655V14.3006C68.3154 13.7155 68.9218 13.2279 69.6847 12.8378C70.4672 12.4477 71.3768 12.2526 72.4135 12.2526C73.7828 12.2526 75.0054 12.594 76.0813 13.2766C77.1572 13.9593 77.9885 14.8858 78.5754 16.0561C79.1818 17.2264 79.485 18.5235 79.485 19.9473C79.485 21.3517 79.172 22.6488 78.546 23.8386C77.9396 25.0089 77.0887 25.9451 75.9933 26.6473C74.9174 27.3299 73.7144 27.6713 72.3842 27.6713ZM71.8854 24.5115C73.0591 24.5115 74.0274 24.0824 74.7903 23.2242C75.5727 22.3659 75.9639 21.2737 75.9639 19.9473C75.9639 18.6405 75.5727 17.558 74.7903 16.6998C74.0274 15.8415 73.0591 15.4124 71.8854 15.4124C70.7117 15.4124 69.7434 15.8415 68.9805 16.6998C68.2372 17.5385 67.8655 18.621 67.8655 19.9473C67.8655 21.2737 68.2372 22.3659 68.9805 23.2242C69.7434 24.0824 70.7117 24.5115 71.8854 24.5115Z" fill="black"/>
<path d="M82.3681 6.78149H85.8891V27.2617H82.3681V6.78149Z" fill="black"/>
<path d="M96.3711 27.6713C94.9235 27.6713 93.6227 27.3299 92.4686 26.6473C91.3145 25.9646 90.4049 25.0381 89.7398 23.8678C89.0943 22.678 88.7715 21.3712 88.7715 19.9473C88.7715 18.5235 89.0943 17.2264 89.7398 16.0561C90.4049 14.8858 91.3145 13.9593 92.4686 13.2766C93.6423 12.594 94.9431 12.2526 96.3711 12.2526C97.8186 12.2526 99.1195 12.594 100.274 13.2766C101.428 13.9593 102.337 14.8858 103.002 16.0561C103.667 17.2264 104 18.5235 104 19.9473C104 21.3712 103.667 22.678 103.002 23.8678C102.337 25.0381 101.428 25.9646 100.274 26.6473C99.1195 27.3299 97.8186 27.6713 96.3711 27.6713ZM96.3711 24.4237C97.5448 24.4237 98.5228 24.0043 99.3053 23.1656C100.088 22.3074 100.479 21.2346 100.479 19.9473C100.479 18.66 100.088 17.597 99.3053 16.7583C98.5228 15.9196 97.5448 15.5002 96.3711 15.5002C95.1778 15.5002 94.1998 15.9196 93.4369 16.7583C92.674 17.597 92.2925 18.66 92.2925 19.9473C92.2925 21.2542 92.674 22.3269 93.4369 23.1656C94.1998 24.0043 95.1778 24.4237 96.3711 24.4237Z" fill="black"/>
<path d="M15.9917 2.50713C14.5599 1.91745 12.9103 2.10366 11.603 2.97266C10.3269 3.84166 9.54871 5.26931 9.54871 6.82109V25.9391C9.54871 28.8565 7.61893 31.4014 4.81763 32.2083L3.16798 32.6739C2.8256 32.767 2.45209 32.7049 2.17196 32.4877C1.89183 32.2704 1.70508 31.929 1.70508 31.5876V11.942C1.70508 6.29349 6.31165 1.7002 11.9765 1.7002C13.8752 1.7002 15.6493 2.2278 17.1745 3.0968C20.1936 4.86584 22.2479 8.15563 22.2479 11.911C22.2479 17.5595 17.6413 22.1527 11.9765 22.1527C11.1361 22.1527 10.3268 22.0596 9.54871 21.8734" stroke="black" stroke-width="2.47569" stroke-miterlimit="10"/>
</svg>
